<svg width="31" height="32" viewBox="0 0 31 32" fill="none" xmlns="http://www.w3.org/2000/svg">
<path d="M24.5417 2.61212H11.625C10.2003 2.61212 9.04168 3.77075 9.04168 5.19545V12.4107L2.9618 18.4906C2.78121 18.6712 2.65824 18.9014 2.60842 19.1519C2.55861 19.4024 2.58419 19.6621 2.68193 19.8981C2.77967 20.134 2.94518 20.3357 3.15754 20.4777C3.36991 20.6196 3.61958 20.6954 3.87501 20.6955V27.1538C3.87501 27.4964 4.0111 27.8249 4.25333 28.0671C4.49556 28.3094 4.8241 28.4455 5.16668 28.4455H25.8333C26.1759 28.4455 26.5045 28.3094 26.7467 28.0671C26.9889 27.8249 27.125 27.4964 27.125 27.1538V5.19545C27.125 3.77075 25.9664 2.61212 24.5417 2.61212ZM14.2083 25.8621H6.45834V18.6469L10.3333 14.7719L14.2083 18.6469V25.8621ZM24.5417 25.8621H16.7917V20.6955C17.0474 20.696 17.2975 20.6206 17.5103 20.4788C17.723 20.3369 17.8888 20.1351 17.9867 19.8988C18.0845 19.6626 18.11 19.4026 18.0598 19.1519C18.0096 18.9012 17.8861 18.671 17.7049 18.4906L11.625 12.4107V5.19545H24.5417V25.8621Z" fill="#5DADE2"/>
<path d="M14.2084 7.77878H16.7917V10.3621H14.2084V7.77878ZM19.375 7.77878H21.9584V10.3621H19.375V7.77878ZM19.375 12.9855H21.9584V15.5288H19.375V12.9855ZM19.375 18.1121H21.9584V20.6954H19.375V18.1121ZM9.04169 19.4038H11.625V21.9871H9.04169V19.4038Z" fill="#5DADE2"/>
</svg>
