<svg width="23" height="22" viewBox="0 0 23 22" fill="none" xmlns="http://www.w3.org/2000/svg">
<g clip-path="url(#clip0_14_654)">
<path d="M4.25591 12.0563C5.17182 12.0563 6.08772 12.0563 7.00363 12.0563C7.56392 12.0563 8.06025 12.1539 8.31225 12.7394C8.56297 13.3211 8.31225 13.739 7.90546 14.1305C7.41937 14.5984 6.9499 15.0826 6.45485 15.5405C6.20285 15.7732 6.15936 15.932 6.44334 16.191C10.1824 19.5888 16.7 18.1314 18.606 13.4587C18.8465 12.867 19.0678 12.289 19.8046 12.1276C20.3981 11.9975 20.9008 12.1414 21.3166 12.5642C21.7464 13.0033 21.8116 13.53 21.5903 14.073C20.0809 17.7736 17.3715 20.1506 13.3408 20.8499C9.94323 21.4391 6.87955 20.5834 4.31859 18.2502C4.03717 17.9938 3.88494 18.0438 3.65213 18.284C3.12382 18.8269 2.57632 19.3524 2.02754 19.8766C1.68856 20.1993 1.30224 20.387 0.813584 20.1981C0.300625 20.0004 0.0217594 19.6201 0.0166426 19.0972C0.0012922 17.1593 -0.0076622 15.2227 0.0166426 13.2848C0.0281554 12.4654 0.463083 12.0788 1.31631 12.0626C2.29618 12.0425 3.27604 12.0576 4.25591 12.0576V12.0563Z" fill="#FF0000"/>
<path d="M18.771 9.01126C17.855 9.01126 16.9379 8.99374 16.0232 9.01751C15.4386 9.03253 14.9589 8.88741 14.7044 8.34445C14.4268 7.75396 14.7108 7.31109 15.147 6.91076C15.5806 6.51043 15.9606 6.04879 16.4236 5.68724C16.9404 5.28315 16.7728 5.0367 16.3584 4.70267C13.7667 2.61218 9.95216 2.44203 7.20316 4.31985C5.85744 5.23937 4.8763 6.44162 4.28914 7.94662C4.05889 8.53711 3.64954 8.93244 2.9882 9.0025C2.41128 9.0638 1.94053 8.83236 1.60666 8.37948C1.18069 7.8015 1.315 7.18599 1.57724 6.59925C2.88842 3.6568 5.05538 1.53503 8.18942 0.579233C12.0411 -0.595496 15.5909 0.100084 18.6469 2.76355C18.9603 3.03628 19.1227 3.06005 19.4067 2.76105C19.912 2.22561 20.4518 1.72143 20.9827 1.20851C21.3434 0.860718 21.7553 0.705588 22.2593 0.898249C22.7902 1.10092 22.9923 1.50751 22.9936 2.02794C22.9987 3.94454 23.0064 5.86113 22.991 7.77773C22.9846 8.58841 22.5369 9.00125 21.7118 9.01001C20.732 9.01877 19.7521 9.01251 18.7722 9.01251L18.771 9.01126Z" fill="#FF0000"/>
</g>
<defs>
<clipPath id="clip0_14_654">
<rect width="23" height="21" fill="white" transform="translate(0 0.0287781)"/>
</clipPath>
</defs>
</svg>
