<svg width="31" height="33" viewBox="0 0 31 33" fill="none" xmlns="http://www.w3.org/2000/svg">
<path d="M24.5417 2.69543H11.625C10.2003 2.69543 9.04167 3.89143 9.04167 5.3621V13.3621H6.45833C5.03362 13.3621 3.875 14.5581 3.875 16.0288V28.0288C3.875 28.3824 4.01109 28.7215 4.25332 28.9716C4.49555 29.2216 4.8241 29.3621 5.16667 29.3621H25.8333C26.1759 29.3621 26.5044 29.2216 26.7467 28.9716C26.9889 28.7215 27.125 28.3824 27.125 28.0288V5.3621C27.125 3.89143 25.9664 2.69543 24.5417 2.69543ZM6.45833 16.0288H14.2083V26.6954H6.45833V16.0288ZM24.5417 26.6954H16.7917V16.0288C16.7917 14.5581 15.633 13.3621 14.2083 13.3621H11.625V5.3621H24.5417V26.6954Z" fill="#99A3A4"/>
<path d="M14.2084 8.02878H16.7917V10.6954H14.2084V8.02878ZM19.375 8.02878H21.9584V10.6954H19.375V8.02878ZM19.375 13.4034H21.9584V16.0288H19.375V13.4034ZM19.375 18.6954H21.9584V21.3621H19.375V18.6954ZM9.04169 18.6968H11.625V21.3634H9.04169V18.6968Z" fill="#99A3A4"/>
</svg>
