<svg width="31" height="25" viewBox="0 0 31 25" fill="none" xmlns="http://www.w3.org/2000/svg">
<path d="M15.5012 10.8402C12.0949 10.8402 8.68848 10.8479 5.28979 10.8325C4.78229 10.8325 4.6285 10.971 4.64388 11.4785C4.67464 13.1547 4.66695 14.8387 4.64388 16.5227C4.64388 16.961 4.7746 17.0686 5.19752 17.0609C8.9653 17.0455 12.7408 17.0455 16.5085 17.0609C16.993 17.0609 17.0699 16.8841 17.0545 16.4611C17.0237 15.5384 17.0391 14.608 17.0545 13.6853C17.0545 13.4315 17.0852 13.1701 17.1468 12.924C17.2467 12.5626 17.5543 12.4166 17.8926 12.4473C18.2386 12.4781 18.5078 12.6549 18.5462 13.0471C18.5693 13.2854 18.5847 13.5161 18.5847 13.7545C18.5847 16.515 18.5847 19.2678 18.5847 22.0282C18.5847 23.9506 17.7311 24.7964 15.8396 24.7964C12.4563 24.7964 9.07295 24.7964 5.68963 24.7964C4.0518 24.7964 3.1137 23.8737 3.1137 22.2358C3.1137 18.6603 3.09832 15.0848 3.12139 11.5092C3.12139 10.9556 2.95992 10.7941 2.42935 10.8402C1.8911 10.8864 1.35284 10.8787 0.860725 10.5788C0.0379652 10.0713 -0.25423 9.064 0.237888 8.14128C1.46049 5.82678 2.70617 3.54305 3.95953 1.267C4.42089 0.421174 5.19752 0.00594903 6.14331 -0.00174032C12.3947 -0.00942966 18.6385 -0.00942966 24.8899 -0.00174032C25.8665 -0.00174032 26.6123 0.451931 27.0891 1.32852C28.2963 3.55843 29.5189 5.78834 30.7261 8.02594C31.4643 9.39464 30.6262 10.8095 29.0806 10.8325C28.2758 10.8428 27.8734 11.2606 27.8734 12.0859C27.8734 15.9229 27.8734 19.7599 27.8734 23.5892C27.8734 23.7583 27.8734 23.9352 27.8734 24.1044C27.8503 24.5119 27.612 24.7426 27.2275 24.7733C26.82 24.8041 26.5124 24.6119 26.4278 24.1813C26.3817 23.9275 26.3817 23.6661 26.3817 23.4123C26.3817 19.5138 26.3817 15.6153 26.3817 11.7168C26.3817 11.1273 26.0972 10.8325 25.5281 10.8325C22.191 10.8325 18.8461 10.8325 15.5089 10.8325L15.5012 10.8402ZM28.75 9.31775C29.5189 9.31775 29.6112 9.17934 29.2498 8.50268C28.1271 6.3958 26.9814 4.2966 25.8665 2.18972C25.6281 1.74374 25.3128 1.5592 24.79 1.5592C18.6231 1.57458 12.4639 1.57458 6.29709 1.5592C5.72039 1.5592 5.38975 1.75912 5.12062 2.25893C4.02874 4.33505 2.90609 6.39579 1.79114 8.45654C1.3836 9.21778 1.44512 9.32544 2.31401 9.33313C6.68925 9.33313 11.0645 9.33313 15.4397 9.33313C19.8765 9.33313 24.3209 9.33313 28.7577 9.33313L28.75 9.31775ZM5.22058 18.5988C4.76691 18.5988 4.6285 18.7218 4.64388 19.1755C4.67464 20.2289 4.64388 21.2824 4.65926 22.3358C4.65926 23.0663 4.85919 23.2662 5.57429 23.2662C9.08064 23.2662 12.5947 23.2662 16.101 23.2662C16.8546 23.2662 17.0391 23.074 17.0468 22.2974C17.0545 21.2439 17.0314 20.1905 17.0622 19.137C17.0776 18.7141 16.9545 18.5911 16.5239 18.5988C14.6554 18.6219 12.7792 18.6065 10.903 18.6065C9.01143 18.6065 7.11216 18.6219 5.22058 18.5988Z" fill="#45B39D"/>
</svg>
