<svg width="31" height="33" viewBox="0 0 31 33" fill="none" xmlns="http://www.w3.org/2000/svg">
<path d="M28.0847 16.4701L16.4597 3.13678C15.9702 2.57412 15.0299 2.57412 14.5403 3.13678L2.91531 16.4701C2.74798 16.6616 2.63815 16.8991 2.59917 17.1538C2.56019 17.4085 2.59373 17.6694 2.69573 17.9048C2.90239 18.3861 3.36481 18.6954 3.87502 18.6954H6.45835V28.0288C6.45835 28.3824 6.59444 28.7215 6.83667 28.9716C7.07891 29.2216 7.40745 29.3621 7.75002 29.3621H11.625C11.9676 29.3621 12.2961 29.2216 12.5384 28.9716C12.7806 28.7215 12.9167 28.3824 12.9167 28.0288V22.6954H18.0834V28.0288C18.0834 28.3824 18.2194 28.7215 18.4617 28.9716C18.7039 29.2216 19.0324 29.3621 19.375 29.3621H23.25C23.5926 29.3621 23.9211 29.2216 24.1634 28.9716C24.4056 28.7215 24.5417 28.3824 24.5417 28.0288V18.6954H27.125C27.3752 18.6965 27.6202 18.6225 27.8303 18.4823C28.0404 18.3421 28.2064 18.1419 28.3082 17.906C28.4099 17.6701 28.443 17.4087 28.4033 17.1537C28.3636 16.8988 28.2529 16.6613 28.0847 16.4701Z" fill="#FF0000"/>
</svg>
