<svg width="31" height="32" viewBox="0 0 31 32" fill="none" xmlns="http://www.w3.org/2000/svg">
<path d="M26.908 5.91235C27.0378 5.71782 27.1123 5.49171 27.1237 5.25814C27.135 5.02457 27.0827 4.7923 26.9724 4.58611C26.8621 4.37992 26.6979 4.20755 26.4973 4.08739C26.2967 3.96722 26.0672 3.90377 25.8333 3.90381H5.16667C4.93303 3.90393 4.70379 3.96742 4.50338 4.08752C4.30297 4.20762 4.13889 4.37983 4.02861 4.58581C3.91833 4.79179 3.86598 5.02382 3.87715 5.25719C3.88831 5.49057 3.96257 5.71655 4.092 5.91106L14.2083 21.0869V25.8621H10.3333V28.4455H20.6667V25.8621H16.7917V21.0869L26.908 5.91235ZM23.4205 6.48714L20.8372 10.3621H10.1628L7.5795 6.48714H23.4205Z" fill="#F5B041"/>
</svg>
