<svg width="31" height="33" viewBox="0 0 31 33" fill="none" xmlns="http://www.w3.org/2000/svg">
<path d="M28.1867 9.93681C28.0679 9.75958 27.9093 9.61471 27.7244 9.51463C27.5394 9.41454 27.3338 9.36222 27.125 9.36215H9.47177L7.98119 5.66881C7.78575 5.18244 7.45479 4.76693 7.0303 4.47496C6.6058 4.18299 6.10687 4.02771 5.59677 4.02881H2.58331V6.69548H5.59677L11.7244 21.8755C11.8226 22.1184 11.9882 22.3258 12.2003 22.4717C12.4125 22.6177 12.6617 22.6955 12.9166 22.6955H23.25C23.7886 22.6955 24.2704 22.3501 24.4603 21.8315L28.3353 11.1648C28.4085 10.963 28.4333 10.7458 28.4074 10.5319C28.3815 10.3181 28.3058 10.1139 28.1867 9.93681ZM22.3549 20.0288H13.7782L10.549 12.0288H25.2611L22.3549 20.0288Z" fill="#52BE80"/>
<path d="M13.5625 28.0288C14.6326 28.0288 15.5 27.1334 15.5 26.0288C15.5 24.9242 14.6326 24.0288 13.5625 24.0288C12.4924 24.0288 11.625 24.9242 11.625 26.0288C11.625 27.1334 12.4924 28.0288 13.5625 28.0288Z" fill="#52BE80"/>
<path d="M22.6042 28.0288C23.6742 28.0288 24.5417 27.1334 24.5417 26.0288C24.5417 24.9242 23.6742 24.0288 22.6042 24.0288C21.5341 24.0288 20.6667 24.9242 20.6667 26.0288C20.6667 27.1334 21.5341 28.0288 22.6042 28.0288Z" fill="#52BE80"/>
</svg>
