<svg width="10" height="12" viewBox="0 0 10 12" fill="none" xmlns="http://www.w3.org/2000/svg">
<g clip-path="url(#clip0_14_644)">
<path d="M5.24211 11.2274C6.44446 9.84814 9.18665 6.50518 9.18665 4.62744C9.18665 2.3501 7.17102 0.502441 4.68665 0.502441C2.20227 0.502441 0.186646 2.3501 0.186646 4.62744C0.186646 6.50518 2.92883 9.84814 4.13118 11.2274C4.41946 11.5562 4.95383 11.5562 5.24211 11.2274ZM4.68665 6.00244C3.8593 6.00244 3.18665 5.38584 3.18665 4.62744C3.18665 3.86904 3.8593 3.25244 4.68665 3.25244C5.51399 3.25244 6.18665 3.86904 6.18665 4.62744C6.18665 5.38584 5.51399 6.00244 4.68665 6.00244Z" fill="#FF0000"/>
</g>
<defs>
<clipPath id="clip0_14_644">
<rect width="9" height="11" fill="white" transform="translate(0.186646 0.502441)"/>
</clipPath>
</defs>
</svg>
